#!OML:ASF G:\JayActor3\Patient Classification 1\Patient 1\Session 6\male.ASF
:FULLY-SPECIFIED
:DEGREES
1387
root -4.78818 15.4056 -0.721037 7.4183 -71.8512 17.4358
lowerback 27.9796 -4.23733 5.04242
upperback 5.55767 -3.8933 4.62533
thorax -9.17876 -2.06534 3.69835
lowerneck 11.7159 -9.34983 1.45939
upperneck -29.8646 -11.8311 7.60234
head -11.2045 -6.94829 4.11866
rclavicle -7.95139e-015 -2.62396e-014
rhumerus -31.2819 10.7693 -81.4304
rradius 128.367
rwrist 14.6496
rhand 13.4847 -20.3058
rfingers 7.12502
rthumb 38.4235 -45.9886
lclavicle -7.95139e-015 -2.62396e-014
lhumerus -43.1708 -1.78945 89.9751
lradius 127.838
lwrist 4.55559
lhand -0.753105 37.5393
lfingers 7.12502
lthumb 24.8688 65.9418
rfemur -62.6734 4.21712 17.5124
rtibia 66.2361
rfoot -23.2904 -3.67138
rtoes 7.9315
lfemur -22.3872 25.5296 -18.0563
ltibia 40.4702
lfoot -22.2493 17.799
ltoes -8.38921
1388
root -4.79234 15.4126 -0.709188 6.86482 -71.9885 17.9371
lowerback 27.9921 -4.25665 5.12857
upperback 5.55742 -3.8896 4.68423
thorax -9.18583 -2.06645 3.71623
lowerneck 11.7678 -9.33272 1.46756
upperneck -30.1483 -11.8111 7.63595
head -11.3233 -6.95179 4.15418
rclavicle -4.53229e-014 -7.79236e-014
rhumerus -31.2606 10.6616 -81.3892
rradius 128.392
rwrist 14.6979
rhand 13.4666 -20.2915
rfingers 7.12502
rthumb 38.4064 -45.979
lclavicle -4.53229e-014 -7.79236e-014
lhumerus -43.1365 -1.80296 89.94
lradius 127.806
lwrist 4.63147
lhand -0.995649 37.3714
lfingers 7.12502
lthumb 24.6364 65.8057
rfemur -62.5494 4.34169 17.2824
rtibia 66.1877
rfoot -23.2851 -3.70907
rtoes 7.84183
lfemur -22.4252 25.6402 -18.1644
ltibia 40.8132
lfoot -21.9504 17.6687
ltoes -8.89384
1389
root -4.79632 15.4196 -0.697569 6.29836 -72.1262 18.4499
lowerback 28.0051 -4.2775 5.20699
upperback 5.55582 -3.88994 4.74145
thorax -9.19427 -2.06921 3.73819
lowerneck 11.822 -9.31341 1.48002
upperneck -30.4213 -11.7881 7.6628
head -11.4401 -6.95325 4.18597
rclavicle -2.54444e-014 4.29375e-014
rhumerus -31.2436 10.568 -81.3583
rradius 128.41
rwrist 14.7578
rhand 13.4602 -20.2886
rfingers 7.12502
rthumb 38.4004 -45.9778
lclavicle -2.54444e-014 4.29375e-014
lhumerus -43.1137 -1.79752 89.9129
lradius 127.786
lwrist 4.67343
lhand -0.858638 37.6642
lfingers 7.12502
lthumb 24.7677 66.0806
rfemur -62.4233 4.46193 17.0564
rtibia 66.1362
rfoot -23.2796 -3.73977
rtoes 7.76294
lfemur -22.4828 25.7654 -18.2673
ltibia 41.1893
lfoot -21.6194 17.5183
ltoes -9.4041
1390
root -4.80029 15.4266 -0.686026 5.70968 -72.2707 18.986
lowerback 28.0112 -4.29789 5.27427
upperback 5.55122 -3.89347 4.79362
thorax -9.20235 -2.07311 3.76151
lowerneck 11.8884 -9.29056 1.49713
upperneck -30.6812 -11.7602 7.67981
head -11.5563 -6.95098 4.21308
rclavicle -7.95139e-016 1.66979e-014
rhumerus -31.2403 10.4902 -81.3403
rradius 128.423
rwrist 14.8243
rhand 13.461 -20.2928
rfingers 7.12502
rthumb 38.4011 -45.9818
lclavicle -7.95139e-016 1.66979e-014
lhumerus -43.1141 -1.77692 89.8985
lradius 127.779
lwrist 4.68945
lhand -0.479387 38.2201
lfingers 7.12502
lthumb 25.1311 66.5861
rfemur -62.297 4.57712 16.8328
rtibia 66.0816
rfoot -23.2671 -3.77117
rtoes 7.61465
lfemur -22.5617 25.9062 -18.3681
ltibia 41.6019
lfoot -21.2717 17.3351
ltoes -9.84188
1391
root -4.80402 15.4336 -0.674231 5.11428 -72.4267 19.5381
lowerback 27.9995 -4.31602 5.33729
upperback 5.54062 -3.89649 4.84076
thorax -9.20855 -2.07656 3.78031
lowerneck 11.9825 -9.26573 1.51296
upperneck -30.9374 -11.729 7.69174
head -11.6778 -6.94561 4.24012
rclavicle -2.78299e-014 -2.54444e-014
rhumerus -31.2521 10.4262 -81.3264
rradius 128.43
rwrist 14.8945
rhand 13.4533 -20.2871
rfingers 7.12502
rthumb 38.3938 -45.9781
lclavicle -2.78299e-014 -2.54444e-014
lhumerus -43.1336 -1.74702 89.8802
lradius 127.787
lwrist 4.70066
lhand -0.113935 38.6993
lfingers 7.12502
lthumb 25.4812 67.0157
rfemur -62.1823 4.68646 16.612
rtibia 66.0229
rfoot -23.2469 -3.78628
rtoes 7.46797
lfemur -22.6778 26.0569 -18.4704
ltibia 42.0571
lfoot -20.9082 17.1334
ltoes -10.1981
1392
root -4.80748 15.4405 -0.662094 4.5369 -72.5919 20.0853
lowerback 27.9633 -4.32959 5.4105
upperback 5.52892 -3.89311 4.88478
thorax -9.20485 -2.07732 3.78555
lowerneck 12.0728 -9.24398 1.53003
upperneck -31.1816 -11.7032 7.69801
head -11.7948 -6.9418 4.26452
rclavicle -2.22639e-014 -3.18055e-014
rhumerus -31.2688 10.3606 -81.3037
rradius 128.432
rwrist 14.9641
rhand 13.4356 -20.2699
rfingers 7.12502
rthumb 38.3772 -45.9655
lclavicle -2.22639e-014 -3.18055e-014
lhumerus -43.1517 -1.72358 89.8634
lradius 127.801
lwrist 4.71183
lhand 0.156698 38.9994
lfingers 7.12502
lthumb 25.7405 67.2785
rfemur -62.0824 4.78756 16.4003
rtibia 65.9583
rfoot -23.2179 -3.78499
rtoes 7.31785
lfemur -22.8404 26.2229 -18.5718
ltibia 42.5579
lfoot -20.523 16.9128
ltoes -10.4662
1393
root -4.81104 15.4478 -0.649502 3.97154 -72.7617 20.6278
lowerback 27.9075 -4.33952 5.49803
upperback 5.51885 -3.88333 4.92597
thorax -9.19062 -2.07557 3.77541
lowerneck 12.1505 -9.22617 1.54856
upperneck -31.4134 -11.6845 7.69924
head -11.9051 -6.94061 4.28596
rclavicle -2.22639e-014 2.62396e-014
rhumerus -31.2857 10.288 -81.2717
rradius 128.434
rwrist 15.0243
rhand 13.4203 -20.251
rfingers 7.12502
rthumb 38.3627 -45.9506
lclavicle -2.22639e-014 2.62396e-014
lhumerus -43.1628 -1.71393 89.8508
lradius 127.82
lwrist 4.7248
lhand 0.314928 39.1327
lfingers 7.12502
lthumb 25.892 67.3898
rfemur -61.9881 4.87886 16.1952
rtibia 65.885
rfoot -23.1835 -3.75527
rtoes 7.2053
lfemur -23.0434 26.3905 -18.672
ltibia 43.1035
lfoot -20.1058 16.6964
ltoes -10.6846
1394
root -4.81424 15.4561 -0.636776 3.40652 -72.9202 21.171
lowerback 27.8447 -4.34937 5.60434
upperback 5.51282 -3.86954 4.96537
thorax -9.16954 -2.07252 3.75032
lowerneck 12.1996 -9.21818 1.57068
upperneck -31.6323 -11.6812 7.69845
head -12.0049 -6.94693 4.30501
rclavicle -1.03368e-014 3.33958e-014
rhumerus -31.2962 10.1942 -81.235
rradius 128.438
rwrist 15.0716
rhand 13.4205 -20.2381
rfingers 7.12502
rthumb 38.3629 -45.9377
lclavicle -1.03368e-014 3.33958e-014
lhumerus -43.1543 -1.72553 89.8449
lradius 127.834
lwrist 4.74174
lhand 0.3173 39.0414
lfingers 7.12502
lthumb 25.8943 67.2981
rfemur -61.8896 4.95073 15.9933
rtibia 65.801
rfoot -23.1463 -3.69889
rtoes 7.15657
lfemur -23.2857 26.6039 -18.7714
ltibia 43.6919
lfoot -19.6266 16.4452
ltoes -10.8917
1395
root -4.81722 15.4656 -0.624266 2.8367 -73.0639 21.7149
lowerback 27.7832 -4.36002 5.72304
upperback 5.51253 -3.85408 5.00461
thorax -9.14329 -2.06911 3.71719
lowerneck 12.2153 -9.2175 1.59133
upperneck -31.8372 -11.6898 7.70051
head -12.0918 -6.95933 4.32326
rclavicle -2.8625e-014 -4.45278e-014
rhumerus -31.2915 10.0829 -81.1907
rradius 128.446
rwrist 15.0946
rhand 13.4428 -20.2405
rfingers 7.12502
rthumb 38.3839 -45.9342
lclavicle -2.8625e-014 -4.45278e-014
lhumerus -43.123 -1.75354 89.8419
lradius 127.841
lwrist 4.76401
lhand 0.305134 38.9405
lfingers 7.12502
lthumb 25.8826 67.1989
rfemur -61.7786 5.00697 15.7937
rtibia 65.705
rfoot -23.1101 -3.61837
rtoes 7.19608
lfemur -23.5588 26.8649 -18.8657
ltibia 44.3197
lfoot -19.0819 16.1597
ltoes -11.1086
